<svg width="414" height="137" viewBox="0 0 414 137" fill="none" xmlns="http://www.w3.org/2000/svg">
<path d="M500.507 22.1133C512.853 9.20921 528.468 -0.0557861 541.946 -11.7333C553.694 -21.9106 564.488 -34.845 567.129 -50.3036C569.666 -65.2248 563.671 -79.9028 553.998 -91.3675C543.224 -104.14 528.227 -112.432 512.78 -118.879C495.896 -125.924 478.07 -130.718 461.511 -138.503C445.015 -146.268 429.861 -156.324 413.607 -164.484C401.292 -170.667 386.17 -174.448 372.472 -170.627C361.929 -167.687 353.755 -160.348 347.488 -151.894C340.33 -142.244 335.289 -131.276 330.185 -120.541C327.261 -114.378 324.4 -108.194 320.554 -102.498C316.246 -96.1317 311.038 -90.3436 305.138 -85.3158C299.091 -80.1562 292.299 -75.8177 285.026 -72.4624C276.653 -68.6003 267.65 -66.3399 258.627 -64.4038C242.215 -60.8863 225.112 -58.048 211.33 -48.0532C205.535 -43.8465 200.525 -38.4943 197.601 -32.0169C194.677 -25.5497 194.09 -18.383 195.568 -11.49C198.744 3.28934 209.957 15.1898 223.194 22.5288C253.104 39.1227 292.823 36.2743 318.521 60.5011C330.992 72.2597 337.752 88.0932 346.45 102.376C354.174 115.067 364.12 127.687 378.655 133.394C393.485 139.223 410.379 136.182 424.034 128.863C438.801 120.957 449.616 107.9 458.105 94.0739C460.243 90.5869 462.255 87.039 464.183 83.4405C466.175 79.7406 467.705 75.8683 469.581 72.1177C469.759 71.7528 469.203 71.4284 469.015 71.7933C467.16 75.5135 464.917 79.0715 462.947 82.7309C460.966 86.4105 458.912 90.0598 456.711 93.6279C452.383 100.653 447.531 107.394 441.787 113.405C430.71 125.001 415.776 133.719 399.228 134.955C391.273 135.553 383.246 134.246 376.088 130.779C369.098 127.393 363.208 122.274 358.219 116.506C347.708 104.353 341.42 89.5732 332.868 76.1825C328.613 69.5227 323.75 63.1569 317.724 57.8959C311.667 52.6045 304.572 48.5498 297.131 45.377C281.84 38.849 265.334 35.9093 249.383 31.3174C233.496 26.7457 217.346 20.2075 206.688 7.39471C197.035 -4.21184 192.456 -20.3901 200.253 -34.0848C207.819 -47.374 223.194 -54.4495 237.698 -58.3116C254.665 -62.8326 272.45 -64.5457 288.275 -72.4827C301.627 -79.173 313.165 -89.2185 321.466 -101.342C328.55 -111.681 332.92 -123.623 338.663 -134.672C343.736 -144.413 349.594 -154.286 358.23 -161.503C367.18 -168.984 378.488 -171.813 390.152 -170.393C407.56 -168.285 422.274 -158.239 437.061 -149.887C444.848 -145.487 452.697 -141.169 460.819 -137.358C468.648 -133.678 476.718 -130.688 484.892 -127.819C515.305 -117.105 552.405 -104.728 563.849 -71.986C566.375 -64.7687 567.119 -57.0445 565.641 -49.5433C564.132 -41.9002 560.537 -34.8045 555.916 -28.4792C546.043 -14.9365 531.958 -5.34718 518.711 4.83009C512.036 9.95927 505.538 15.3115 499.805 21.4239C499.376 21.8902 500.078 22.5694 500.507 22.1133Z" fill="#F9F8D3"/>
<path d="M506.795 -55.9396C519.141 -68.8436 534.756 -78.1086 548.234 -89.7861C559.982 -99.9634 570.776 -112.898 573.417 -128.356C575.954 -143.278 569.959 -157.956 560.286 -169.42C549.512 -182.193 534.515 -190.484 519.068 -196.931C502.184 -203.976 484.358 -208.771 467.799 -216.556C451.303 -224.321 436.149 -234.376 419.894 -242.536C407.58 -248.72 392.458 -252.501 378.76 -248.679C368.217 -245.74 360.043 -238.401 353.776 -229.947C346.618 -220.297 341.577 -209.329 336.473 -198.594C333.549 -192.431 330.688 -186.247 326.842 -180.55C322.534 -174.185 317.326 -168.396 311.426 -163.369C305.379 -158.209 298.587 -153.871 291.314 -150.515C282.941 -146.653 273.938 -144.393 264.915 -142.457C248.503 -138.939 231.4 -136.101 217.618 -126.106C211.823 -121.899 206.813 -116.547 203.889 -110.07C200.965 -103.602 200.378 -96.4358 201.856 -89.5428C205.032 -74.7635 216.245 -62.863 229.482 -55.524C259.392 -38.9302 299.111 -41.7786 324.809 -17.5518C337.28 -5.79317 344.04 10.0404 352.738 24.3231C360.462 37.0143 370.407 49.6345 384.943 55.3414C399.773 61.17 416.667 58.1291 430.322 50.8103C445.089 42.9037 455.904 29.8476 464.393 16.0211C466.531 12.534 468.543 8.98618 470.471 5.38765C472.463 1.68774 473.993 -2.18452 475.869 -5.93512C476.047 -6.30005 475.491 -6.62444 475.303 -6.25951C473.448 -2.53932 471.205 1.01871 469.235 4.67807C467.254 8.3577 465.2 12.0069 462.999 15.575C458.671 22.5998 453.819 29.3407 448.075 35.3518C436.998 46.9482 422.064 55.6658 405.516 56.9025C397.561 57.5005 389.534 56.1929 382.376 52.7261C375.386 49.3405 369.496 44.2214 364.507 38.4536C353.996 26.2997 347.708 11.5203 339.156 -1.87029C334.901 -8.53012 330.038 -14.896 324.012 -20.1569C317.955 -25.4483 310.86 -29.503 303.419 -32.6758C288.128 -39.2039 271.622 -42.1435 255.671 -46.7355C239.784 -51.3071 223.634 -57.8453 212.976 -70.6581C203.323 -82.2647 198.744 -98.4429 206.541 -112.138C214.107 -125.427 229.482 -132.502 243.986 -136.364C260.953 -140.885 278.738 -142.598 294.563 -150.536C307.915 -157.226 319.453 -167.271 327.753 -179.395C334.838 -189.734 339.208 -201.675 344.951 -212.724C350.024 -222.466 355.882 -232.339 364.518 -239.556C373.468 -247.037 384.776 -249.865 396.44 -248.446C413.847 -246.338 428.562 -236.292 443.349 -227.94C451.136 -223.54 458.985 -219.222 467.107 -215.411C474.936 -211.731 483.006 -208.741 491.18 -205.872C521.593 -195.157 558.693 -182.78 570.137 -150.039C572.663 -142.821 573.407 -135.097 571.929 -127.596C570.42 -119.953 566.825 -112.857 562.204 -106.532C552.331 -92.9893 538.246 -83.4 524.999 -73.2227C518.324 -68.0936 511.826 -62.7414 506.093 -56.6289C505.664 -56.1626 506.366 -55.4834 506.795 -55.9396Z" fill="#F9F8D3"/>
<path d="M177.72 -55.9396C190.066 -68.8436 205.681 -78.1086 219.159 -89.7861C230.907 -99.9634 241.701 -112.898 244.342 -128.356C246.879 -143.278 240.884 -157.956 231.211 -169.42C220.437 -182.193 205.44 -190.484 189.993 -196.931C173.109 -203.976 155.283 -208.771 138.724 -216.556C122.228 -224.321 107.074 -234.376 90.8195 -242.536C78.5054 -248.72 63.3826 -252.501 49.6852 -248.679C39.1422 -245.74 30.9677 -238.401 24.7006 -229.947C17.5427 -220.297 12.5018 -209.329 7.39798 -198.594C4.47403 -192.431 1.61296 -186.247 -2.23323 -180.55C-6.54055 -174.185 -11.7491 -168.396 -17.6494 -163.369C-23.6964 -158.209 -30.4876 -153.871 -37.7607 -150.515C-46.1343 -146.653 -55.1367 -144.393 -64.1601 -142.457C-80.5719 -138.939 -97.6754 -136.101 -111.457 -126.106C-117.252 -121.899 -122.262 -116.547 -125.186 -110.07C-128.11 -103.602 -128.697 -96.4358 -127.219 -89.5428C-124.043 -74.7635 -112.83 -62.863 -99.5933 -55.524C-69.6831 -38.9302 -29.9636 -41.7786 -4.26637 -17.5518C8.20494 -5.79317 14.9646 10.0404 23.6631 24.3231C31.3869 37.0143 41.3325 49.6345 55.8684 55.3414C70.6978 61.17 87.5916 58.1291 101.247 50.8103C116.014 42.9037 126.829 29.8476 135.318 16.0211C137.456 12.534 139.468 8.98618 141.396 5.38765C143.388 1.68774 144.918 -2.18452 146.794 -5.93512C146.972 -6.30005 146.416 -6.62444 146.228 -6.25951C144.373 -2.53932 142.13 1.01871 140.16 4.67807C138.179 8.3577 136.125 12.0069 133.924 15.575C129.596 22.5998 124.744 29.3407 119 35.3518C107.923 46.9482 92.9889 55.6658 76.4408 56.9025C68.4865 57.5005 60.4587 56.1929 53.3008 52.7261C46.3106 49.3405 40.4208 44.2214 35.4322 38.4536C24.9207 26.2997 18.6326 11.5203 10.0809 -1.87029C5.82597 -8.53012 0.963211 -14.896 -5.06284 -20.1569C-11.1203 -25.4483 -18.2154 -29.503 -25.6562 -32.6758C-40.9467 -39.2039 -57.4528 -42.1435 -73.4035 -46.7355C-89.2914 -51.3071 -105.441 -57.8453 -116.099 -70.6581C-125.752 -82.2647 -130.331 -98.4429 -122.534 -112.138C-114.968 -125.427 -99.5933 -132.502 -85.0888 -136.364C-68.1216 -140.885 -50.3368 -142.598 -34.5119 -150.536C-21.1603 -157.226 -9.6217 -167.271 -1.32146 -179.395C5.76308 -189.734 10.1333 -201.675 15.8764 -212.724C20.9487 -222.466 26.8071 -232.339 35.4427 -239.556C44.3927 -247.037 55.7007 -249.865 67.3651 -248.446C84.7725 -246.338 99.4866 -236.292 114.274 -227.94C122.061 -223.54 129.91 -219.222 138.032 -215.411C145.861 -211.731 153.931 -208.741 162.105 -205.872C192.518 -195.157 229.618 -182.78 241.062 -150.039C243.588 -142.821 244.332 -135.097 242.854 -127.596C241.345 -119.953 237.75 -112.857 233.129 -106.532C223.257 -92.9893 209.171 -83.4 195.924 -73.2227C189.249 -68.0936 182.751 -62.7414 177.018 -56.6289C176.589 -56.1626 177.291 -55.4834 177.72 -55.9396Z" fill="#F9F8D3"/>
</svg>
